<?xml version="1.0" encoding="UTF-8" standalone="no"?>
<!-- Created with Inkscape (http://www.inkscape.org/) -->

<svg
   width="210mm"
   height="297mm"
   viewBox="0 0 210 297"
   version="1.1"
   id="svg5"
   inkscape:version="1.2.2 (b0a8486541, 2022-12-01)"
   sodipodi:docname="drawing.svg"
   xml:space="preserve"
   xmlns:inkscape="http://www.inkscape.org/namespaces/inkscape"
   xmlns:sodipodi="http://sodipodi.sourceforge.net/DTD/sodipodi-0.dtd"
   xmlns="http://www.w3.org/2000/svg"
   xmlns:svg="http://www.w3.org/2000/svg"><sodipodi:namedview
     id="namedview7"
     pagecolor="#ffffff"
     bordercolor="#000000"
     borderopacity="0.25"
     inkscape:showpageshadow="2"
     inkscape:pageopacity="0.0"
     inkscape:pagecheckerboard="0"
     inkscape:deskcolor="#d1d1d1"
     inkscape:document-units="mm"
     showgrid="false"
     inkscape:zoom="0.77326038"
     inkscape:cx="634.32708"
     inkscape:cy="541.21485"
     inkscape:window-width="1854"
     inkscape:window-height="1011"
     inkscape:window-x="2626"
     inkscape:window-y="147"
     inkscape:window-maximized="1"
     inkscape:current-layer="layer1" /><defs
     id="defs2" /><g
     inkscape:label="Layer 1"
     inkscape:groupmode="layer"
     id="layer1"><path
       style="fill:#000000;stroke-width:1"
       d="m 122.54237,208.50014 c -0.19855,-0.86159 -0.45247,-2.00624 -0.56426,-2.54366 -0.28368,-1.36382 -1.72559,-3.62788 -3.10314,-4.87247 -0.63851,-0.57689 -2.31085,-1.51614 -3.71632,-2.08722 -3.07618,-1.24995 -6.24221,-1.65629 -16.686223,-2.1416 -15.50613,-0.72054 -17.29713,-0.96513 -20.14137,-2.75063 -1.96876,-1.23592 -3.34,-2.84153 -4.03459,-4.72419 -0.64538,-1.74925 -0.68,-3.47469 -0.13709,-6.83166 0.35384,-2.18791 0.32632,-2.74933 -0.20949,-4.27341 -0.33927,-0.96502 -1.01261,-2.1841 -1.4963,-2.70906 -0.4837,-0.52496 -1.53609,-2.03829 -2.33864,-3.36297 -1.26357,-2.08562 -1.48116,-2.73157 -1.62317,-4.8185 -0.20948,-3.07871 0.24532,-4.06081 2.21093,-4.77415 1.31719,-0.47803 1.69089,-0.49033 4.11638,-0.13549 2.42319,0.35451 5.03766,1.3114 8.43144,3.0859 0.43127,0.2255 0.84053,0.34918 0.90948,0.27485 0.0689,-0.0743 0.35946,-0.78039 0.64558,-1.56903 1.09229,-3.01066 2.5527,-2.41363 4.03895,1.65116 l 0.93484,2.55672 1.50101,0.21058 c 1.99196,0.86189 6.17646,-0.86651 7.36988,0.0196 0,0.1681 -1.0804,0.46315 -2.4009,0.65567 -1.79876,0.26225 -2.93081,0.26882 -4.51378,0.0262 -2.16506,-0.33184 -2.66935,-0.1853 -2.68348,0.77976 -0.003,0.20449 -0.39839,0.519 -0.87865,0.69891 -1.81954,0.6816 -3.75076,-0.68823 -3.75076,-2.66046 0,-0.45712 -0.28011,-1.09982 -0.62246,-1.42823 -0.77684,-0.74518 -6.09442,-3.15112 -7.85124,-3.55229 -1.87822,-0.42889 -4.20453,-0.37073 -5.39371,0.13486 -0.82904,0.35247 -1.07457,0.69612 -1.27245,1.78098 -0.13485,0.73933 -0.14376,2.05372 -0.0198,2.92087 0.23573,1.64894 2.29122,5.46111 3.87724,7.19084 1.35084,1.47323 2.1664,4.24091 1.90055,6.44971 -0.69716,5.79217 -0.69535,5.89785 0.13303,7.76571 0.92849,2.09359 3.10352,4.07837 5.52576,5.04241 2.11066,0.84004 8.07934,1.38781 22.218923,2.0391 8.51924,0.39241 9.26104,0.50371 12.56733,1.88563 4.60814,1.92606 6.80965,4.61455 7.67791,9.37628 0.40264,2.20819 -0.13416,2.80358 -0.62141,0.68923 z M 88.132027,170.06632 c 0.65693,-0.54009 0.71972,-1.85803 0.15824,-3.32131 -1.01314,-2.64034 -1.46198,-3.52994 -1.781,-3.52994 -0.66334,0 -1.37519,2.04557 -1.37519,3.95173 0,1.65231 0.12308,2.02468 0.87305,2.64127 1.02124,0.83961 1.36671,0.8816 2.1249,0.25825 z m -17.20882,-13.4585 c -0.87114,-0.2246 -2.19163,-0.89627 -2.93443,-1.4926 -1.21109,-0.97228 -1.35053,-1.23663 -1.35037,-2.56015 1.9e-4,-1.58581 0.71946,-3.39139 2.49592,-6.26551 0.61428,-0.99384 1.42437,-2.69103 1.80021,-3.77154 0.68505,-1.96945 0.90719,-5.17208 0.40389,-5.82284 -0.53876,-0.69661 -2.3272,-0.96 -7.4795,-1.10154 -5.751572,-0.158 -7.266774,-0.45428 -9.878433,-1.93158 -2.160833,-1.22229 -2.990473,-2.39488 -2.987791,-4.22286 0.0038,-2.58564 2.424584,-5.95757 9.154364,-12.75115 1.30326,-1.31562 2.34935,-2.38026 8.11415,-8.2581 1.55272,-1.58316 3.20492,-3.32679 3.67155,-3.87472 0.46664,-0.54793 0.99588,-0.99624 1.1761,-0.99624 0.41802,0 -0.60161,1.42556 -2.20237,3.07918 -0.6847,0.70731 -2.12524,2.22332 -3.2012,3.36891 -1.07596,1.14559 -2.96262,3.0914 -4.19259,4.32401 -4.401914,4.4114 -5.437265,5.48803 -7.357674,7.6511 -6.057346,6.82273 -5.841754,10.11068 0.80383,12.25906 1.531477,0.49509 2.667105,0.60794 6.118134,0.60794 4.59237,0 7.64756,0.39006 8.62981,1.10178 0.49687,0.36003 0.6219,0.92862 0.61973,2.81826 -0.003,2.81734 -0.65919,4.71261 -3.04595,8.80074 -1.12343,1.92425 -1.75855,3.42897 -1.85717,4.39998 -0.12986,1.27861 -0.0204,1.60222 0.81995,2.42326 0.5334,0.52118 1.55089,1.15898 2.26109,1.41734 1.71545,0.62404 5.95086,0.61286 7.43858,-0.0197 2.41344,-1.02608 4.73385,-4.69823 5.0803,-8.03981 0.188,-1.81321 0.36042,-2.2447 1.07834,-2.69849 0.47,-0.29708 1.15956,-0.54308 1.53236,-0.54666 1.1687,-0.0112 3.00285,1.38561 3.45744,2.63307 0.34422,0.94456 0.58699,1.16204 1.29718,1.16204 0.48054,0 1.63493,-0.34062 2.56531,-0.75694 1.34147,-0.60027 1.86676,-1.06898 2.53795,-2.26454 1.20761,-2.15104 2.94691,-3.60958 5.627783,-4.71932 5.96601,-2.4696 11.51594,-3.37577 20.743,-3.38683 6.81582,-0.008 7.13625,0.0349 15.42627,2.07402 5.69352,1.40044 7.45134,2.00677 10.44225,3.60188 1.27389,0.67939 3.01276,1.48624 3.86415,1.79299 1.39751,0.50352 1.63927,0.51561 2.48717,0.12434 0.73666,-0.33995 0.9982,-0.74653 1.2129,-1.88557 0.62124,-3.29587 0.51113,-8.50343 -0.29147,-13.78481 -0.2495,-1.6418 0.27936,-2.21342 0.71812,-0.77617 0.52569,1.72205 0.87929,10.51759 0.52675,13.10303 -0.38928,2.85487 -0.93654,3.8469 -2.27448,4.12298 -1.27831,0.26378 -3.02921,-0.3124 -7.06826,-2.326 -2.7692,-1.38053 -4.65878,-2.06418 -8.06293,-2.91714 -2.44536,-0.61273 -5.48651,-1.38322 -6.7581,-1.71221 -1.94532,-0.50329 -3.44015,-0.61128 -9.42577,-0.68093 -9.35021,-0.10879 -13.16784,0.38106 -19.07092,2.44708 -4.009923,1.40343 -5.504033,2.37626 -6.860083,4.46662 -1.77174,2.73117 -3.82271,4.06239 -6.25877,4.06239 -0.53904,0 -1.142,0.16449 -1.33992,0.36554 -0.19791,0.20105 -0.64625,1.3431 -0.99631,2.5379 -0.65242,2.22684 -1.54329,3.34359 -2.53878,3.1825 -0.90575,-0.14657 -1.91895,-1.5037 -2.14163,-2.86859 l -0.20632,-1.26471 -1.04974,1.72868 c -1.43912,2.36987 -2.90415,3.55669 -5.0317,4.07613 -2.13538,0.52137 -4.12581,0.51003 -6.24192,-0.0355 z m 15.66388,-3.043 c 0.15639,-0.24126 0.51872,-1.16242 0.80518,-2.04702 0.28647,-0.88461 0.68799,-2.12091 0.89228,-2.74733 0.43982,-1.34863 -0.0823,-2.43005 -1.55665,-3.22429 -0.85553,-0.46086 -1.00312,-0.46414 -1.79098,-0.0397 -0.47224,0.25439 -0.95668,0.78376 -1.07653,1.17637 -0.28596,0.93672 0.40168,6.08881 0.91866,6.88301 0.44436,0.68262 1.36521,0.6821 1.80804,-8.8e-4 z"
       id="path378"
       sodipodi:nodetypes="cssssssssssssssssscccsssssssssssssssssccsssssssssssssssssssssssssscsssscsssssssscsssssssssssssssssssscssscsssssscc" /><path
       style="fill:#dc2a2a;fill-opacity:1;stroke-width:0.264999"
       d="m 99.980747,169.13341 c -2.34604,-1.12608 -5.63554,-0.86457 -6.58151,-4.19898 -0.94597,-3.3344 0.27267,-3.83173 8.005673,-4.84733 7.733,-1.0156 18.60976,-1.99669 27.56978,0.0461 6.33773,1.44494 13.53191,3.34371 17.58804,8.42332 3.22589,4.03988 7.26031,11.64297 3.43777,15.12366 -7.4148,6.75169 -18.88415,-6.83839 -28.585,-9.37965 -4.89453,-1.28218 -10.00234,-1.63955 -14.89035,-2.94638 -2.22547,-0.59499 -4.46761,-1.22389 -6.544403,-2.22074 z"
       id="path476"
       sodipodi:nodetypes="assaaaaaa" /></g></svg>
